<svg xmlns="http://www.w3.org/2000/svg" height="0" width="0">
  <defs>
    <g id="logo-01">
        <path d="M40.6 21.4c2.4 2 3.6 4.7 3.6 8 0 1.1-0.1 2.4-0.4 3.7 -0.7 3.1-2 5.7-4 8 -1.9 2.3-4.3 4.1-7.1 5.3 -2.8 1.2-5.9 1.9-9.1 1.9 -5.2 0-9-1-11.5-3.1 -2.5-2.1-3.7-4.8-3.7-8.2 0-1.2 0.1-2.4 0.4-3.9 0.7-2.9 2.1-5.5 4.1-7.7 2-2.3 4.4-4 7.3-5.3 2.9-1.2 6-1.9 9.2-1.9C34.4 18.3 38.1 19.3 40.6 21.4zM26.7 25.3c-0.9 1.4-1.9 4-3.1 7.9 -1.2 3.9-1.8 6.6-1.8 8.2 0 0.8 0.1 1.4 0.4 1.6 0.3 0.3 0.6 0.4 1.1 0.4 0.8 0.1 1.6-0.6 2.4-2 0.8-1.4 1.9-4.2 3.2-8.3 1.2-3.6 1.7-6.2 1.7-7.9 0-0.8-0.1-1.3-0.4-1.6 -0.2-0.3-0.6-0.4-1-0.4C28.4 23.3 27.6 24 26.7 25.3z"/>
        </g>
        <g id="logo-02">
        <path d="M77.5 40.1c-0.1 0.1-0.1 0.4-0.1 0.7 0 0.3 0.1 0.5 0.2 0.6 0.1 0.1 0.3 0.2 0.5 0.2 0.4 0 0.8-0.2 1.1-0.6 0.3-0.4 0.5-0.6 0.6-0.6 0.2 0 0.3 0.1 0.4 0.4 0.1 0.2 0.2 0.5 0.2 0.9 0 1.1-0.3 2.1-1.1 3.2 -0.7 1-1.8 1.9-3.3 2.5 -1.4 0.7-3.2 1-5.2 1 -2.5 0-4.4-0.6-5.9-1.7 -1.5-1.1-2.2-2.7-2.2-4.6 0-1.4 0.3-2.9 1-4.6l3.1-8c0.2-0.5 0.3-0.9 0.3-1.2 0-0.5-0.2-0.9-0.5-1.1 -0.3-0.3-0.7-0.4-1.1-0.4 -0.7 0-1.4 0.3-2.2 1 -0.7 0.7-1.3 1.7-1.8 3.2v-0.1L58.2 42c-0.1 0.4-0.2 0.8-0.2 1.2 0 0.5 0.1 0.9 0.3 1.1 0.2 0.3 0.4 0.6 0.8 0.8 0.3 0.3 0.4 0.5 0.6 0.6 0.1 0.2 0.1 0.4 0.1 0.6 -0.2 0.5-0.6 0.8-1.1 1.1 -0.6 0.2-1.4 0.3-2.6 0.3H43.3c-1 0-1.7-0.2-2.1-0.5 -0.4-0.3-0.6-0.7-0.4-1.3 0.1-0.4 0.5-0.8 1.2-1.2 0.6-0.3 1-0.7 1.4-1.1 0.4-0.4 0.7-1.1 0.9-2L52.8 14c0.1-0.3 0.2-0.6 0.2-0.8 0-0.4-0.1-0.7-0.3-1 -0.2-0.3-0.5-0.5-0.8-0.8 -0.4-0.3-0.6-0.6-0.8-0.8s-0.2-0.5-0.1-0.9c0.2-0.9 1.4-1.6 3.5-2.2 2.1-0.6 4.3-0.9 6.6-0.9 2.2 0 3.8 0.4 4.8 1.2 1 0.8 1.5 1.9 1.5 3.4 0 0.8-0.1 1.6-0.4 2.4l-3 9.8c1.5-1.9 3-3.2 4.6-4 1.6-0.7 3.4-1.1 5.3-1.1 2.3 0 4.1 0.7 5.5 2.1 1.4 1.4 2.1 3.2 2.1 5.4 0 1.2-0.2 2.3-0.6 3.4L77.5 40.1z"/>
        </g>
        <g id="logo-03">
        <path d="M136.1 40.1c-0.1 0.1-0.1 0.4-0.1 0.7 0 0.3 0.1 0.5 0.2 0.6 0.1 0.1 0.3 0.2 0.5 0.2 0.4 0 0.8-0.2 1.1-0.6 0.3-0.4 0.5-0.6 0.6-0.6 0.2 0 0.3 0.1 0.4 0.4 0.1 0.2 0.2 0.5 0.2 0.9 0 1.1-0.3 2.1-1.1 3.2 -0.7 1-1.8 1.9-3.3 2.5 -1.4 0.7-3.2 1-5.2 1 -2.5 0-4.4-0.6-5.9-1.7 -1.5-1.1-2.2-2.7-2.2-4.6 0-1.4 0.3-2.9 1-4.6l3.1-8c0.2-0.5 0.3-0.9 0.3-1.2 0-0.5-0.2-0.9-0.5-1.1 -0.3-0.3-0.7-0.4-1.1-0.4 -0.6 0-1.3 0.3-2 0.8 -0.7 0.6-1.3 1.4-1.8 2.6l-3.1 10c-0.1 0.1-0.1 0.4-0.1 0.7 0 0.3 0.1 0.5 0.2 0.6 0.1 0.1 0.3 0.2 0.5 0.2 0.4 0 0.8-0.2 1.1-0.6 0.3-0.4 0.5-0.6 0.6-0.6 0.2 0 0.3 0.1 0.4 0.4 0.1 0.2 0.2 0.5 0.2 0.9 0 1.1-0.3 2.1-1.1 3.2 -0.7 1-1.8 1.9-3.3 2.5 -1.4 0.7-3.2 1-5.2 1 -2.5 0-4.4-0.6-5.9-1.7 -1.5-1.1-2.2-2.7-2.2-4.6 0-1.4 0.3-2.9 1-4.6l3.1-8c0.2-0.5 0.3-0.9 0.3-1.2 0-0.5-0.2-0.9-0.5-1.1 -0.3-0.3-0.7-0.4-1.1-0.4 -0.6 0-1.3 0.3-2 0.8 -0.7 0.5-1.2 1.4-1.7 2.6l-3.7 12c-0.1 0.4-0.2 0.8-0.2 1.2 0 0.4 0.1 0.8 0.3 1.1 0.2 0.3 0.4 0.6 0.8 0.9 0.3 0.2 0.4 0.4 0.6 0.6 0.1 0.2 0.1 0.4 0.1 0.7 -0.1 0.5-0.5 0.8-1.1 1.1 -0.6 0.2-1.4 0.3-2.6 0.3H83.3c-1 0-1.7-0.2-2.1-0.5 -0.4-0.3-0.6-0.7-0.5-1.3 0.1-0.4 0.5-0.8 1.2-1.2 0.6-0.3 1-0.7 1.4-1.1 0.4-0.4 0.7-1.1 0.9-2l5-16.1c0.1-0.2 0.1-0.4 0.1-0.8 0-0.4-0.1-0.7-0.3-0.9 -0.2-0.2-0.4-0.5-0.8-0.8 -0.4-0.3-0.6-0.6-0.8-0.8 -0.1-0.2-0.2-0.5-0.1-0.9 0.2-0.9 1.4-1.6 3.5-2.3 2.1-0.7 4.3-1 6.6-1 1.8 0 3.3 0.5 4.3 1.5 1.1 1 1.6 2.4 1.5 4.1 1.5-2.1 3.1-3.6 4.8-4.4 1.7-0.8 3.5-1.2 5.5-1.2 2.2 0 3.9 0.6 5.3 1.9 1.4 1.2 2.1 2.9 2.3 4.9 1.6-2.5 3.3-4.3 5.1-5.3 1.8-1 3.8-1.5 6-1.5 2.3 0 4.1 0.7 5.5 2.1 1.4 1.4 2.1 3.2 2.1 5.4 0 1.2-0.2 2.3-0.6 3.4L136.1 40.1z"/>
        </g>
        <g id="logo-04">
        <path d="M174.5 20.3c1 1.3 1.5 3.1 1.5 5.4 0 2-0.4 4.1-1.1 6.4 -1.4 4.6-3.6 8.9-6.6 13 -3 4.1-6.5 7.3-10.4 9.8 -3.9 2.5-7.8 3.7-11.8 3.7 -1.9 0-3.6-0.3-5-1s-2.5-1.6-3.2-2.7c-0.7-1.1-1.1-2.3-1.1-3.6 0-0.6 0.1-1.2 0.3-1.8 0.3-1 0.9-1.8 1.7-2.4 0.8-0.6 1.7-0.8 2.8-0.8 1.7 0 3.1 0.6 4.2 1.8 1.1 1.2 1.8 2.8 2.1 4.8 2.4-0.1 4.6-1.1 6.6-3.1 -1.9-0.3-3.3-1-4.2-1.9 -0.9-0.9-1.5-2.4-1.9-4.4l-2.2-13.7c-0.1-0.7-0.3-1.2-0.5-1.5 -0.2-0.3-0.5-0.4-0.8-0.4 -0.3 0-0.6 0.1-0.9 0.4 -0.4 0.3-0.6 0.4-0.8 0.4 -0.3 0-0.4-0.3-0.4-0.9 0-0.5 0.1-1.1 0.3-1.7 0.7-2.1 1.9-3.9 3.7-5.4 1.8-1.5 3.9-2.2 6.4-2.2 2.4 0 4.1 0.7 5.3 2.1 1.1 1.4 1.9 3.6 2.2 6.5l1.7 12.3c0.1 0.9 0.4 1.4 1 1.4 0.7 0 1.5-0.6 2.3-1.8 0.9-1.2 1.8-2.9 2.6-5.2 -1.1-1-2-2.2-2.6-3.5 -0.6-1.3-0.9-2.7-0.9-4.2 0-1.2 0.1-2.2 0.4-3.1 0.4-1.5 1.1-2.6 2.1-3.4 1-0.8 2-1.1 3.2-1.1C172.2 18.3 173.5 18.9 174.5 20.3z"/>
        </g>
        <g id="logo-05">
        <path d="M207.3 8.4c2 1.2 3 2.7 3 4.4 0 1.4-0.6 2.5-1.8 3.3 -1.2 0.8-2.7 1.1-4.6 1.1 -1.8 0-3.1-0.4-4.1-1.3 -1-0.9-1.5-1.9-1.5-3.2 0-0.8 0.2-1.6 0.7-2.5 -1.1 0-2 0.3-2.8 0.8 -0.7 0.5-1.3 1.5-1.7 2.8 -0.2 0.8-0.3 1.6-0.3 2.3 0 0.9 0.2 1.6 0.5 2.1 0.3 0.5 0.8 0.8 1.4 0.8h3.3c1.9 0 2.9 0.6 2.9 1.8 0 0.1 0 0.4-0.1 0.7 -0.2 0.8-0.7 1.4-1.4 1.8 -0.7 0.4-1.7 0.6-3.1 0.6h-1.7L190.5 42c-0.1 0.4-0.2 0.8-0.2 1.2 0 0.5 0.1 0.9 0.3 1.1 0.2 0.3 0.4 0.6 0.8 0.8 0.3 0.3 0.4 0.5 0.6 0.6 0.1 0.2 0.1 0.4 0.1 0.6 -0.2 0.5-0.6 0.8-1.1 1.1 -0.6 0.2-1.4 0.3-2.6 0.3h-12.7c-1 0-1.7-0.2-2.1-0.5 -0.4-0.3-0.6-0.7-0.4-1.3 0.1-0.4 0.5-0.8 1.2-1.2 0.6-0.3 1-0.7 1.4-1.1 0.4-0.4 0.7-1.1 0.9-2l4.4-14.3c0.2-0.6 0.3-1.1 0.3-1.7 0-0.7-0.2-1.3-0.5-1.8 -0.3-0.4-0.8-0.9-1.4-1.4 -0.4-0.3-0.7-0.6-0.9-0.9 -0.2-0.2-0.3-0.5-0.3-0.9 0-0.7 0.2-1.2 0.8-1.5 0.5-0.3 1.6-0.4 3.1-0.4h1.4c-0.3-0.9-0.4-1.9-0.4-2.8 0-0.9 0.2-1.9 0.5-2.9 0.7-1.9 2.2-3.5 4.6-4.8 2.3-1.3 5.8-2 10.4-2C202.3 6.5 205.3 7.2 207.3 8.4z"/>
        </g>
        <g id="logo-06">
        <path d="M231.6 21.4c2.4 2 3.6 4.7 3.6 8 0 1.1-0.1 2.4-0.4 3.7 -0.7 3.1-2 5.7-4 8 -1.9 2.3-4.3 4.1-7.1 5.3 -2.8 1.2-5.9 1.9-9.1 1.9 -5.2 0-9-1-11.5-3.1 -2.5-2.1-3.7-4.8-3.7-8.2 0-1.2 0.1-2.4 0.4-3.9 0.7-2.9 2.1-5.5 4.1-7.7 2-2.3 4.4-4 7.3-5.3 2.9-1.2 6-1.9 9.2-1.9C225.5 18.3 229.2 19.3 231.6 21.4zM217.8 25.3c-0.9 1.4-1.9 4-3.1 7.9 -1.2 3.9-1.8 6.6-1.8 8.2 0 0.8 0.1 1.4 0.4 1.6 0.3 0.3 0.6 0.4 1.1 0.4 0.8 0.1 1.6-0.6 2.4-2 0.8-1.4 1.9-4.2 3.2-8.3 1.2-3.6 1.7-6.2 1.7-7.9 0-0.8-0.1-1.3-0.4-1.6 -0.2-0.3-0.6-0.4-1-0.4C219.5 23.3 218.6 24 217.8 25.3z"/>
        </g>
        <g id="logo-07">
        <path d="M268.3 21.4c2.4 2 3.6 4.7 3.6 8 0 1.1-0.1 2.4-0.4 3.7 -0.7 3.1-2 5.7-4 8 -1.9 2.3-4.3 4.1-7.1 5.3 -2.8 1.2-5.9 1.9-9.1 1.9 -5.2 0-9-1-11.5-3.1 -2.5-2.1-3.7-4.8-3.7-8.2 0-1.2 0.1-2.4 0.4-3.9 0.7-2.9 2.1-5.5 4.1-7.7 2-2.3 4.4-4 7.3-5.3 2.9-1.2 6-1.9 9.2-1.9C262.1 18.3 265.9 19.3 268.3 21.4zM254.4 25.3c-0.9 1.4-1.9 4-3.1 7.9 -1.2 3.9-1.8 6.6-1.8 8.2 0 0.8 0.1 1.4 0.4 1.6 0.3 0.3 0.6 0.4 1.1 0.4 0.8 0.1 1.6-0.6 2.4-2 0.8-1.4 1.9-4.2 3.2-8.3 1.2-3.6 1.7-6.2 1.7-7.9 0-0.8-0.1-1.3-0.4-1.6 -0.2-0.3-0.6-0.4-1-0.4C256.1 23.3 255.3 24 254.4 25.3z"/>
        </g>
        <g id="logo-08">
        <path d="M303.2 40.4c0 0.3 0.1 0.5 0.2 0.6 0.1 0.1 0.3 0.2 0.6 0.2 0.4 0 0.8-0.2 1.1-0.6 0.3-0.4 0.5-0.6 0.6-0.6 0.2 0 0.3 0.1 0.4 0.4 0.1 0.3 0.2 0.6 0.2 0.9 0 1-0.3 2-1.1 3.1 -0.8 1-1.9 1.9-3.2 2.6 -1.3 0.7-2.8 1-4.4 1 -1.9 0-3.5-0.4-4.9-1.1 -1.4-0.7-2.3-1.6-2.8-2.8 -1 1.3-2.2 2.3-3.5 2.9 -1.3 0.6-2.7 0.9-4.1 0.9 -1.7 0-3.3-0.4-4.8-1.3 -1.5-0.9-2.6-2.1-3.5-3.7 -0.9-1.6-1.3-3.4-1.3-5.4 0-3.4 0.6-6.6 1.9-9.6 1.3-3 3.1-5.4 5.4-7.3 2.3-1.8 4.9-2.8 7.9-2.8 1.6 0 3 0.2 4.1 0.6 1.1 0.4 2.2 0.9 3.1 1.7l1.9-6.3c0.1-0.3 0.2-0.6 0.2-0.8 0-0.4-0.1-0.7-0.3-1 -0.2-0.3-0.5-0.5-0.8-0.8 -0.4-0.3-0.6-0.6-0.8-0.8 -0.2-0.2-0.2-0.5-0.1-0.9 0.2-0.9 1.4-1.6 3.5-2.2 2.1-0.6 4.3-0.9 6.6-0.9 2.2 0 3.8 0.4 4.8 1.2 1 0.8 1.5 1.9 1.5 3.4 0 0.8-0.1 1.6-0.4 2.4l-8 26.3C303.3 40.1 303.2 40.3 303.2 40.4zM292 23.3c-1.1 0-2.1 0.8-3.2 2.4 -1 1.6-1.9 3.5-2.5 5.8 -0.6 2.3-0.9 4.3-0.9 6.1 0 2 0.7 3.1 2 3.1 0.5 0 0.9-0.2 1.2-0.6 0.3-0.4 0.7-1 0.9-1.9l4.4-14.1C293.4 23.6 292.8 23.3 292 23.3z"/>
        </g>

  </defs>
</svg>
