<svg xmlns="http://www.w3.org/2000/svg" viewBox="0 0 320 65">
<defs>
  <g id="logo-offset">
    <path d="M316.7,11.1c0-2.9-1.2-5.5-3.4-7.3c-2-1.6-4.5-2.3-7.9-2.3c-2.8,0-5.5,0.4-8.1,1.2c-1.4,0.4-5.8,1.7-6.9,5.7
	c-0.2,0.8-0.3,1.7-0.2,2.4c0.1,0.6-0.1,1.1-0.5,1.6c-0.4,0.4-0.9,0.7-1.5,0.7c-0.1,0-0.2,0-0.2,0c-4.1,0-7.8,1.3-11,3.9
	c-0.6,0.5-1.2,1-1.7,1.5c-0.8,0.8-2,0.8-2.8,0c-0.3-0.3-0.6-0.6-0.9-0.9c-3.4-2.9-8.1-4.3-14.4-4.3c-3.9,0-7.7,0.8-11.2,2.3
	c-2.4,1-4.5,2.4-6.4,4c-0.8,0.7-2.1,0.6-2.8-0.2c-0.5-0.6-1.1-1.2-1.7-1.7c-3.4-2.9-8.1-4.3-14.4-4.3c-1.4,0-2.8,0.1-4.2,0.3
	c-0.2,0-0.5,0-0.6-0.2c-0.2-0.2-0.3-0.4-0.3-0.6c0-2-0.7-5.9-5.4-8.7c-2.8-1.7-6.6-2.5-11.6-2.5c-5.5,0-9.7,0.8-12.8,2.6
	c-3.4,1.9-5.7,4.4-6.8,7.4c0,0.1,0,0.1-0.1,0.2c-0.2,0.5-0.3,1.1-0.4,1.6c-0.1,0.6-0.6,1.2-1.2,1.4c-0.2,0.1-0.4,0.2-0.7,0.3
	c-0.1,0-0.1,0-0.2,0c-1.6-1.2-3.6-1.8-5.7-1.8c-2.3,0-4.5,0.8-6.4,2.3c-0.6,0.5-1.2,1.1-1.7,1.7c0,0-0.1,0.1-0.1,0.1
	c0,0-0.1,0-0.1-0.1c-1.5-1.8-4.2-4-9.2-4c-3.6,0-6.8,1.1-9.5,3.3c-0.1,0.1-0.2,0.2-0.4,0.3c-0.5,0.4-1.3,0.4-1.8-0.1
	c-2.3-2.3-5.4-3.5-9-3.5c-3,0-5.8,0.7-8.4,2.1c-0.2,0.1-0.4,0.2-0.5,0.3c-0.7,0.4-1.5,0.4-2.2-0.1c-2.1-1.5-4.7-2.3-7.6-2.3
	c-2.7,0-5.3,0.6-7.7,1.7c-0.1,0-0.1,0.1-0.2,0.1c-0.6,0.3-1.4,0.3-2-0.1c-1.5-0.9-3.5-1.7-6.3-1.7c-2.8,0-5.5,0.4-8.1,1.2
	c-0.9,0.3-3,0.9-4.7,2.4c-0.5,0.5-1.4,0.4-1.9-0.1c-2.3-2.3-5.4-3.5-9-3.5c-0.4,0-0.8-0.2-1.1-0.5c-0.3-0.3-0.4-0.7-0.4-1.1
	c0-0.2,0-0.4,0-0.6c0-2.9-1.2-5.5-3.4-7.3c-2-1.6-4.5-2.3-7.9-2.3c-2.8,0-5.5,0.4-8.1,1.2c-1.4,0.4-5.8,1.7-6.9,5.7
	c-0.5,1.9-0.2,3.8,0.9,5.2c0.3,0.4,0.4,0.9,0.2,1.4c-0.1,0.4-0.3,1-0.5,1.7c-0.2,0.6-0.6,1-1.2,1.2c-0.6,0.2-1.2,0-1.7-0.4
	c-3.4-2.9-8.1-4.3-14.4-4.3c-3.9,0-7.7,0.8-11.2,2.3c-3.6,1.5-6.6,3.7-9.1,6.5C6.5,25,4.8,28.3,3.9,32c0,0.1,0,0.1,0,0.2
	c-0.4,1.7-0.6,3.4-0.6,4.9c0,4.9,1.9,9.1,5.5,12.1c3.4,2.9,8.2,4.3,14.7,4.3c4,0,7.7-0.8,11.2-2.3c0.3-0.1,0.6-0.3,0.8-0.4
	c0.7-0.4,1.6-0.2,2.2,0.3c0.2,0.2,0.4,0.3,0.6,0.5c1.3,0.9,3,1.4,5,1.4h12.7c1.8,0,3.2-0.2,4.4-0.7c0.4-0.2,0.7-0.3,1.1-0.5
	c0.6-0.4,1.4-0.4,2,0c2.1,1.2,4.6,1.8,7.4,1.8c2.7,0,5.2-0.5,7.2-1.4c0.3-0.1,0.6-0.1,0.9,0c1.1,0.6,2.5,0.9,4.1,0.9H96
	c1.9,0,3.3-0.2,4.5-0.7c0.4-0.1,0.7-0.3,1-0.5c0.6-0.4,1.4-0.4,2,0c2.1,1.2,4.6,1.7,7.4,1.7c2.7,0,5.2-0.5,7.2-1.4
	c0.9-0.4,1.7-0.8,2.4-1.3c0,0,0.1,0,0.1,0c2.3,1.8,5.4,2.8,8.9,2.8c0.3,0,0.5,0,0.8,0c0.9,0,1.7,0.5,2,1.4c0.3,1,0.8,1.9,1.3,2.8
	c1.2,1.9,3,3.4,5.2,4.5c2.1,1,4.5,1.5,7.2,1.5c4.8,0,9.7-1.5,14.4-4.4c3.2-2,6.1-4.5,8.8-7.4c0.3-0.4,0.9-0.4,1.3-0.1
	c1.3,0.9,3,1.4,5,1.4h12.7c1.8,0,3.2-0.2,4.4-0.7c1.9-0.7,3.2-2.1,3.9-3.9c0-0.1,0.1-0.3,0.1-0.4c0.1-0.3,0.3-0.5,0.6-0.6
	c0.3-0.1,0.6,0,0.8,0.3c0.5,0.6,1,1.1,1.6,1.6c3.4,2.9,8.2,4.3,14.7,4.3c4,0,7.7-0.8,11.2-2.3c2.3-1,4.4-2.3,6.2-3.9
	c0.4-0.3,0.9-0.5,1.5-0.5c0.5,0,1,0.3,1.4,0.7c0.5,0.6,1.1,1.2,1.8,1.8c3.4,2.9,8.2,4.3,14.7,4.3c4,0,7.7-0.8,11.2-2.3
	c2.2-1,4.2-2.2,5.9-3.7c0.4-0.3,1-0.5,1.5-0.5s1,0.3,1.4,0.7c1.1,1.4,2.4,2.5,3.9,3.4c2.2,1.3,4.7,2,7.3,2c2.2,0,4.3-0.5,6.3-1.5
	c0.1-0.1,0.2-0.1,0.3-0.2c0.5-0.2,1-0.2,1.5,0c2.1,1.1,4.5,1.6,7.1,1.6c2.3,0,4.6-0.5,6.6-1.5c2-1,3.7-2.4,4.9-4
	c1.5-2,2.2-4,2.2-6.2c0-1-0.2-1.9-0.6-2.8c-0.2-0.4-0.4-0.8-0.7-1.2c-0.4-0.5-0.5-1.2-0.3-1.8l6.2-20.5c0,0,0,0,0,0
	C316.5,13.8,316.7,12.5,316.7,11.1z"/>
  </g>
</defs>
</svg>
